<svg version="1.0" xmlns="http://www.w3.org/2000/svg" width="1149.333" height="1706.667" viewBox="0 0 862 1280"><path d="M427 3c-11.8 1.6-31.4 3.5-43.5 4.4-96.5 7.1-126 14.1-179 42.5-38.1 20.3-63.4 41.5-103.3 86.5-22.4 25.1-30.2 34.9-41.1 51.1C26.8 237.2 9.4 287.8 1.8 357c-1.9 17.4-1.6 70.6.6 91.5 9.3 92.1 23.4 133.2 56.3 163.8l5.1 4.8 1.7-5.8c2.7-9.2 5.2-22.9 6.4-34.7 1.5-15.2 1.3-55.2-.4-92.1-1.7-36-1.9-63.2-.5-76.2 2-18.6 9.7-37.7 32.7-81.3 8.2-15.7 15.6-30.3 16.3-32.5 9.1-28.7 22.4-53.8 35.9-67.8 8-8.3 23.1-19 24.7-17.4 1 .9-5 14.9-13 30.2-11.8 22.7-12.6 24.8-22.7 61.7-10 36.7-11 39.2-25.2 61.7-4.9 7.9-10.5 17.8-12.5 21.9C95.3 410.6 92 451.5 94 547.5c1.4 68.8.9 72.3-10.2 85.8-4.8 5.6-13.1 9.9-28.8 14.7-19.5 5.9-28.2 12.1-33.9 24-2.5 5.3-2.6 6.1-2.6 24.1v18.7l4.4 8.3c9.2 17.8 20.7 30.1 39 42.1 18.4 12 37.7 20.6 89.6 39.9 34.5 12.8 42.6 16.9 54.8 27.6 8.6 7.6 14.3 14.9 25 32.2 12.6 20.3 24.3 32.9 40.7 43.8 15.2 10.1 24.7 14.5 44.5 20.2 41 11.9 113.2 16.5 180.3 11.5l9.3-.7-.6 3.9c-.3 2.1-1.2 9.8-2 17.1-2.3 22 .7 40.5 7.9 48.9 3.3 3.8 3.6 3.9 9.8 3.9 5.3 0 7.2-.5 10.6-2.7 3.5-2.4 4.4-3.7 6.1-9.3 3.8-12.2 5.5-23.5 5.5-37.4l.1-13.3-3.9-3.4c-4.9-4.3-9.9-6.1-21.1-7.7l-9-1.3 5.5-1.2c3-.6 12.5-2.4 21.1-4.1 19-3.7 21.9-4.6 38.6-12.8 21.5-10.6 29.2-17.7 51.8-47.3 15.4-20.3 22.8-28.5 33.3-37 10.9-8.8 17.2-11.8 45.8-22 51.1-18.2 74.2-29.7 93.6-46.7 11.3-9.9 25.9-27.9 30.2-37.3 5.7-12.5 7.7-31.9 4.2-42-2.4-6.8-9.9-14.6-18.2-18.8-3.2-1.6-12.4-5.3-20.4-8.2-18.1-6.5-25-10.1-31.5-16.5-6.7-6.5-9.1-12.9-10.5-27.7-2.2-23 3.3-75.1 13.1-123.7l1.1-5.4 6.4 6.4 6.4 6.3v26.5c0 22.2.5 31.2 3.1 57 1.7 16.8 3.2 30.8 3.4 31 1 1 15.8-3.7 22.8-7.1 17.5-8.8 29.8-25.6 36.6-49.8 4.5-16.4 5.7-25.9 10-79 5.2-63.5 5.6-70.7 5.5-107.5 0-30.6-.3-38.6-2.2-53.5-6.8-55.5-21.7-96.2-51.9-141.7-23.9-36-48.9-62.8-84.8-90.9-51.9-40.6-109-67.5-163.9-77.4-9.1-1.7-15.4-2-37.7-2-24.4 0-28.5-.3-47.4-3C462.1 1.3 451.8.1 450.6.1 449.5.2 438.8 1.5 427 3zM286.7 438.1c23 3.1 45 12.7 60 26.3 12.2 11 22 28.3 25.4 45.1 4.4 21.3.4 49.7-9.7 68.3-22.1 40.9-58 71.8-102.4 88.2-21 7.8-37.8 9.8-53.2 6.5-22.2-4.6-37.6-20.9-44.1-46.2-2-8.1-2.2-11-2.1-36.3 0-29.9 1.3-43.7 6-62.9 10.5-44.3 36.2-71.8 80.5-86.6 9.2-3 11.7-3.4 21.1-3.5 5.9 0 14.2.5 18.5 1.1zm323.3 1.5c47.8 8.9 81.6 55.2 87 119.5.6 6.8 2.2 19 3.5 27 2.9 17.3 3 19.2.9 27.3-3.2 12.4-10.6 24.5-21.6 35.3-9.1 9-15.8 13.7-28.3 19.9-14.4 7-26.6 10.6-36.5 10.5-52.6-.4-123.7-79-130.5-144.2-1.6-14.9 6.4-35.4 20.1-51.6 16.3-19.3 39.2-32.9 72.9-42.9 12-3.7 16.7-3.8 32.5-.8zM434.2 620.9c6.5 2.5 12 12.1 13.9 24.1 1.4 9.4 3.4 17.6 11.5 46.9 10.8 38.7 15.2 59 17.3 78.1 2 19 2.1 21 1.1 21-.6 0-14.7-2.5-31.3-5.5l-30.2-5.5-25.1 8.4-25.2 8.4-.7-7.2c-2.3-24.8 8.6-75 25.5-117.6 8.3-21.1 21.9-43.7 29.4-49.2 4.1-2.9 9.2-3.7 13.8-1.9z"/><path d="M136.4 877c-4.9 3.2-6.9 8.9-6.8 19.5.1 9.1 5.5 123.2 7.4 155.5 2.4 43 9 59.1 36.8 90.3 20.9 23.4 25.6 29.4 39 49.7 7.4 11.2 16.2 24.1 19.6 28.5 13.7 18 30.1 32.4 45.9 40.4 14.3 7.1 45.2 14.3 74.7 17.3 15.9 1.6 66.6 1.6 82-.1 6.7-.7 23.1-1.2 39.1-1.1 29 .1 40.7-1 53.9-4.9 27.5-8 49-22.8 75.3-51.6 34.6-38 66-85.3 78.2-118l3.7-10 2.9-40.5c1.5-22.3 3.3-43.4 4-47 .6-3.6 3.6-16.2 6.6-28 6.9-27.4 8-33.5 9.3-50 1.2-15.8 1.3-41 .2-41-.4 0-2.3.5-4.2 1-1.9.6-11.1 2.6-20.4 4.6-25.4 5.2-35.8 9.8-47.3 20.7-10.8 10.1-19.4 25-25.2 43.1-4.4 13.5-6.2 21.9-11.6 52.1-5.5 31.1-8.3 43.3-13.2 58-9.1 27.7-22.5 48.4-38.8 60-18.3 13-46.7 22.3-78.5 25.6-14.7 1.5-70.4.6-89-1.5-33.2-3.8-56.3-9.6-77.9-19.7-28.3-13.3-47-32-61-60.9-8.5-17.5-10-26.6-12.1-71.5-.6-12.1-1.7-25.2-2.4-29.1-3.4-16.8-9.5-31.8-18.5-45.3-6.3-9.5-18.6-23.8-22-25.5-1.5-.8-7.6-4.9-13.6-9.1-15.1-10.6-21.1-13.5-27.7-13.5-3.6 0-6.3.7-8.4 2z"/><path d="M297.7 940c-3.4 1-10 5.9-12.7 9.3-6 7.5-8 17.8-5.6 28.1 4.8 20.4 20.1 35.4 33.9 33.1 5.2-.9 11.9-7 15.2-14 2.2-4.7 2.5-6.7 2.5-15.7 0-15.8-4-35.8-8-39.8-1.7-1.7-3.3-2-12.2-1.9-5.7 0-11.5.4-13.1.9zM401 946.5c-1.9.9-4.3 2.4-5.3 3.3-3.4 3-7.6 12.8-9.4 21.9l-1.8 8.8-.6-6.5c-.8-8-3.6-14.5-8.5-20-5.6-6.2-10.4-8.3-17.9-7.8-6.9.4-12.3 3.5-14.9 8.7-2.6 5-4.6 19.2-5.3 37.1l-.6 17.7 5.4 1.9c7.4 2.6 23.5 2.6 34.7 0l8.2-1.9.1-7.6c.1-6.7.2-7.2 1-3.8 2 8.4 8.3 16.9 13.7 18.5 1.5.4 6.5.7 11.2.7 9.9 0 14.9-2.1 19.9-8.2 5.5-6.7 6.4-11.4 5.8-30.7-.4-13.8-.9-18.4-2.6-23.6-3.2-10-2.3-9.5-16.8-9.8-9.8-.1-13.6.2-16.3 1.3zM449.5 946.3c-.7 2.2-5.4 36.9-6.6 48.6-.6 6.3-.8 13.4-.4 15.8.6 3.9 1.1 4.6 4.2 6 8.7 3.6 27.6 2.5 38.2-2.3l5.4-2.4-.6-21.3c-1.1-36.2-3.2-40.1-23.2-43.2-16.4-2.5-16.6-2.5-17-1.2zM284.3 1082.1c.7 15.2 3.4 27.3 7.3 33.2 3.5 5.4 11.2 8.7 21.2 9.4 8.2.6 15.1-.7 17.7-3.3 4.6-4.7-2.1-29.2-10.8-39.1-4.7-5.4-13.1-9-26.2-11.3-3.3-.6-6.9-1.4-7.9-1.7-1.8-.5-1.9 0-1.3 12.8zM350 1073.3c-.3.3-4.5 1-9.3 1.5-4.9.5-9.1 1.2-9.4 1.6-.3.3 1.1 9 3.1 19.3 6.1 31.5 13.5 42.4 27 39.9 10.7-2 20.7-23.2 19.2-41-1.1-14.5-7.4-20.5-22.5-21.4-4.2-.2-7.8-.2-8.1.1zM484.7 1077.4c-4.8 1.8-8.3 4.9-11 10.1-1.9 3.4-2.2 5.6-2.1 14 .1 8.3.6 11.6 3.2 19.5 4.5 13.8 9.1 20 14.8 20 6 0 21.7-15.2 26.7-25.8 5.2-11.1 3.9-20.9-4-29.3-7.3-7.8-19.4-11.5-27.6-8.5zM398.4 1086.1c-9.1 8.7-13.2 20.8-11.3 33.3 2.5 15.3 12.6 23.5 27.9 22.4 8.5-.6 12.1-2.8 17-10.1 6.2-9.3 8.3-15.8 8.4-26.2.1-8.1-.2-9.4-2.6-13.1-1.5-2.3-4-5.1-5.5-6.2-4.3-3.1-12.9-5.2-21-5.2h-7.4l-5.5 5.1z"/></svg>